<svg width="53" height="53" viewBox="0 0 53 53" fill="none" xmlns="http://www.w3.org/2000/svg">
<rect x="0.0316162" y="0.485779" width="52.2771" height="52.2771" rx="15" fill="#EDF1F1"/>
<path fill-rule="evenodd" clip-rule="evenodd" d="M18.5131 13.4979C17.9329 13.4979 17.3764 13.7284 16.9661 14.1387C16.5559 14.5489 16.3254 15.1054 16.3254 15.6856V37.563C16.3254 38.1433 16.5559 38.6997 16.9661 39.11C17.3764 39.5203 17.9329 39.7508 18.5131 39.7508H33.8273C34.4075 39.7508 34.964 39.5203 35.3743 39.11C35.7845 38.6997 36.015 38.1433 36.015 37.563V24.2487C36.015 24.2487 36.015 24.2486 36.015 24.2486C36.0149 23.9587 35.8998 23.6807 35.6948 23.4756C35.6948 23.4756 35.6948 23.4755 35.6947 23.4755L26.0374 13.8182C25.8324 13.6132 25.5543 13.498 25.2643 13.4979C25.2643 13.4979 25.2642 13.4979 25.2642 13.4979H18.5131ZM15.4192 12.5917C16.2397 11.7711 17.3527 11.3102 18.5131 11.3102H25.2645C26.1345 11.3103 26.9689 11.6559 27.5842 12.271L27.5843 12.2711L37.2419 21.9287C37.857 22.544 38.2026 23.3784 38.2028 24.2484V37.563C38.2028 38.7235 37.7418 39.8364 36.9212 40.657C36.1007 41.4775 34.9877 41.9385 33.8273 41.9385H18.5131C17.3527 41.9385 16.2397 41.4775 15.4192 40.657C14.5986 39.8364 14.1376 38.7235 14.1376 37.563V15.6856C14.1376 14.5252 14.5986 13.4123 15.4192 12.5917Z" fill="#114931"/>
<path fill-rule="evenodd" clip-rule="evenodd" d="M26.1702 11.8571C26.7743 11.8571 27.2641 12.3469 27.2641 12.951V21.155C27.2641 21.4451 27.3793 21.7234 27.5844 21.9285C27.7896 22.1336 28.0678 22.2489 28.3579 22.2489H36.5619C37.1661 22.2489 37.6558 22.7386 37.6558 23.3428C37.6558 23.9469 37.1661 24.4366 36.5619 24.4366H28.3579C27.4876 24.4366 26.6529 24.0909 26.0375 23.4755C25.4221 22.86 25.0763 22.0254 25.0763 21.155V12.951C25.0763 12.3469 25.5661 11.8571 26.1702 11.8571ZM19.607 28.8121C19.607 28.208 20.0967 27.7182 20.7008 27.7182H31.6395C32.2437 27.7182 32.7334 28.208 32.7334 28.8121C32.7334 29.4162 32.2437 29.906 31.6395 29.906H20.7008C20.0967 29.906 19.607 29.4162 19.607 28.8121ZM19.607 34.2815C19.607 33.6773 20.0967 33.1876 20.7008 33.1876H31.6395C32.2437 33.1876 32.7334 33.6773 32.7334 34.2815C32.7334 34.8856 32.2437 35.3753 31.6395 35.3753H20.7008C20.0967 35.3753 19.607 34.8856 19.607 34.2815Z" fill="#114931"/>
</svg>
